# xmcd CD database file
#
# Track frame offsets:
#	150
#	20561
#	41056
#	64121
#	89930
#	118490
#	146166
#	169965
#	194656
#	214711
#	236951
#
# Disc length: 3553 seconds
#
# Revision: 0
# Processed by: cddbd v1.5.2PL0 Copyright (c) Steve Scherf et al.
# Submitted via: CDex 1.70beta2
#
DISCID=b90ddf0b
DTITLE=John Tropea - Tropea 10 - The Time Is Right
DYEAR=2007
DGENRE=Jazz
TTITLE0=Morning Dance
TTITLE1=Mambo Inn
TTITLE2=50 Ways To Leave Your Lover
TTITLE3=Giant Steps
TTITLE4=Will You Still Love Me Tomorrow
TTITLE5=Super Strut
TTITLE6=Pandora's Box
TTITLE7=The Cropper Way
TTITLE8=La La Means I Love You
TTITLE9=The Chant
TTITLE10=Body and Soul
EXTD=YEAR: 2007
EXTT0=
EXTT1=
EXTT2=
EXTT3=
EXTT4=
EXTT5=
EXTT6=
EXTT7=
EXTT8=
EXTT9=
EXTT10=
PLAYORDER=
